<svg xmlns="http://www.w3.org/2000/svg" xmlns:xlink="http://www.w3.org/1999/xlink" width="392" zoomAndPan="magnify" viewBox="0 0 294 281.999989" height="376" preserveAspectRatio="xMidYMid meet" version="1.0"><defs><g/><clipPath id="e798d94ec1"><path d="M 0 0 L 294 0 L 294 281.28125 L 0 281.28125 Z M 0 0 " clip-rule="nonzero"/></clipPath><clipPath id="9eae79a83c"><path d="M 146.824219 0 C 65.734375 0 0 62.96875 0 140.640625 C 0 218.316406 65.734375 281.28125 146.824219 281.28125 C 227.914062 281.28125 293.648438 218.316406 293.648438 140.640625 C 293.648438 62.96875 227.914062 0 146.824219 0 Z M 146.824219 0 " clip-rule="nonzero"/></clipPath><clipPath id="b193ff5d3b"><path d="M 50 16 L 138 16 L 138 207 L 50 207 Z M 50 16 " clip-rule="nonzero"/></clipPath><clipPath id="a6120a768b"><path d="M 129.691406 13.203125 L 137.832031 16.570312 L 58.164062 209.238281 L 50.023438 205.875 Z M 129.691406 13.203125 " clip-rule="nonzero"/></clipPath><clipPath id="267cd2eb47"><path d="M 129.691406 13.203125 L 137.832031 16.570312 L 58.164062 209.238281 L 50.023438 205.875 Z M 129.691406 13.203125 " clip-rule="nonzero"/></clipPath><clipPath id="d89b7db742"><path d="M 100 11 L 172 11 L 172 209 L 100 209 Z M 100 11 " clip-rule="nonzero"/></clipPath><clipPath id="df938841f6"><path d="M 95.960938 13.625 L 104.230469 10.589844 L 176.082031 206.308594 L 167.8125 209.347656 Z M 95.960938 13.625 " clip-rule="nonzero"/></clipPath><clipPath id="fa1d7a90c4"><path d="M 95.960938 13.625 L 104.785156 10.386719 L 176.835938 206.660156 L 168.011719 209.898438 Z M 95.960938 13.625 " clip-rule="nonzero"/></clipPath><clipPath id="a7a0d9a4ce"><path d="M 136 128.476562 L 143 128.476562 L 143 139 L 136 139 Z M 136 128.476562 " clip-rule="nonzero"/></clipPath><clipPath id="b8ac8ceeb7"><path d="M 136 131 L 143.058594 131 L 143.058594 139 L 136 139 Z M 136 131 " clip-rule="nonzero"/></clipPath><clipPath id="942e940ee4"><path d="M 83.152344 134 L 91 134 L 91 138 L 83.152344 138 Z M 83.152344 134 " clip-rule="nonzero"/></clipPath><clipPath id="5556ad5fa1"><path d="M 83.152344 129 L 91 129 L 91 138 L 83.152344 138 Z M 83.152344 129 " clip-rule="nonzero"/></clipPath><clipPath id="b4574f0a71"><path d="M 121 16 L 208 16 L 208 207 L 121 207 Z M 121 16 " clip-rule="nonzero"/></clipPath><clipPath id="f2dde888ed"><path d="M 200.285156 13.203125 L 208.425781 16.570312 L 128.757812 209.238281 L 120.617188 205.875 Z M 200.285156 13.203125 " clip-rule="nonzero"/></clipPath><clipPath id="0e9ec75eb0"><path d="M 200.285156 13.203125 L 208.425781 16.570312 L 128.757812 209.238281 L 120.617188 205.875 Z M 200.285156 13.203125 " clip-rule="nonzero"/></clipPath><clipPath id="9e1f53e700"><path d="M 171 11 L 243 11 L 243 209 L 171 209 Z M 171 11 " clip-rule="nonzero"/></clipPath><clipPath id="d210fcb272"><path d="M 166.558594 13.625 L 174.828125 10.589844 L 246.675781 206.308594 L 238.40625 209.347656 Z M 166.558594 13.625 " clip-rule="nonzero"/></clipPath><clipPath id="e0bb0b10b6"><path d="M 166.558594 13.625 L 175.378906 10.386719 L 247.429688 206.660156 L 238.609375 209.898438 Z M 166.558594 13.625 " clip-rule="nonzero"/></clipPath><clipPath id="ecad6b45cb"><path d="M 207 128.476562 L 213.652344 128.476562 L 213.652344 139 L 207 139 Z M 207 128.476562 " clip-rule="nonzero"/></clipPath><clipPath id="a8105b1aab"><path d="M 207 131 L 213.652344 131 L 213.652344 139 L 207 139 Z M 207 131 " clip-rule="nonzero"/></clipPath><clipPath id="e3de510234"><path d="M 153.75 134 L 162 134 L 162 138 L 153.75 138 Z M 153.75 134 " clip-rule="nonzero"/></clipPath></defs><rect x="-29.4" width="352.8" fill="#ffffff" y="-28.199999" height="338.399986" fill-opacity="1"/><g clip-path="url(#e798d94ec1)"><g clip-path="url(#9eae79a83c)"><path fill="#000000" d="M 0 0 L 293.371094 0 L 293.371094 281.28125 L 0 281.28125 Z M 0 0 " fill-opacity="1" fill-rule="nonzero"/></g></g><g fill="#ffffff" fill-opacity="1"><g transform="translate(44.444522, 230.158296)"><g><path d="M 13.417969 -19.625 C 12.640625 -19.625 11.863281 -19.570312 11.117188 -19.570312 C 10.421875 -19.570312 9.757812 -19.542969 9.0625 -19.625 C 8.757812 -19.652344 8.453125 -19.597656 8.175781 -19.570312 C 7.734375 -18.574219 7.457031 -17.574219 7.039062 -16.632812 C 6.597656 -15.605469 6.347656 -14.523438 5.820312 -13.527344 C 5.433594 -12.804688 5.320312 -11.976562 5.015625 -11.226562 C 4.796875 -10.726562 4.683594 -10.171875 4.464844 -9.703125 C 3.964844 -8.675781 3.546875 -7.59375 3.105469 -6.542969 C 2.882812 -6.015625 2.746094 -5.488281 2.496094 -4.988281 C 2.105469 -4.269531 1.855469 -3.492188 1.609375 -2.746094 C 1.386719 -2.023438 1.027344 -1.359375 0.75 -0.664062 C 0.636719 -0.359375 0.691406 -0.195312 0.804688 0 C 1.664062 -0.0273438 2.496094 -0.0820312 3.464844 -0.0546875 C 3.742188 -0.5 3.878906 -1.164062 4.15625 -1.746094 C 4.464844 -2.382812 4.683594 -3.019531 4.960938 -3.714844 C 7.347656 -3.574219 9.730469 -3.910156 12.140625 -3.6875 C 12.585938 -2.4375 13.113281 -1.191406 13.527344 0.0546875 C 13.777344 0.167969 14 0 14.191406 0.0273438 C 15.46875 0.0546875 16.742188 0.0273438 18.019531 -0.0546875 C 18.820312 -0.109375 19.625 0 20.429688 -0.136719 C 20.679688 -0.195312 21.011719 -0.0273438 21.207031 -0.386719 C 18.542969 -6.679688 16.4375 -13.195312 13.722656 -19.515625 C 13.664062 -19.542969 13.527344 -19.625 13.417969 -19.625 Z M 8.703125 -13.390625 C 9.5625 -11.117188 10.285156 -8.789062 11.144531 -6.488281 C 9.398438 -6.429688 7.707031 -6.320312 6.015625 -6.429688 C 6.957031 -8.703125 7.621094 -11.117188 8.703125 -13.390625 Z M 8.703125 -13.390625 "/></g></g></g><g fill="#ffffff" fill-opacity="1"><g transform="translate(66.394723, 230.158296)"><g><path d="M 7.511719 -18.351562 C 6.847656 -17.160156 6.042969 -16.273438 5.015625 -15.523438 C 3.9375 -14.746094 2.632812 -14.71875 1.386719 -14.304688 C 1.496094 -13.472656 1.304688 -12.640625 1.550781 -11.808594 C 2.164062 -11.699219 2.746094 -11.835938 3.296875 -11.726562 C 3.4375 -11.558594 3.410156 -11.308594 3.410156 -11.144531 C 3.410156 -9.589844 3.382812 -8.011719 3.382812 -6.429688 C 3.382812 -5.875 3.355469 -5.320312 3.355469 -4.769531 C 3.355469 -4.074219 3.519531 -3.328125 3.714844 -2.632812 C 3.796875 -2.273438 3.964844 -1.886719 4.214844 -1.578125 C 5.210938 -0.554688 6.402344 0 7.816406 0.195312 C 9.398438 0.414062 10.949219 0.277344 12.445312 -0.277344 C 12.804688 -0.386719 13.222656 -0.445312 13.527344 -0.832031 C 13.417969 -1.550781 13.582031 -2.328125 13.25 -3.078125 C 12.890625 -2.992188 12.613281 -2.910156 12.335938 -2.855469 C 11.753906 -2.773438 11.199219 -2.800781 10.78125 -3.269531 C 10.507812 -3.574219 10.285156 -3.910156 10.144531 -4.324219 C 9.980469 -4.933594 10.007812 -5.542969 9.953125 -6.179688 C 9.867188 -7.734375 10.089844 -9.3125 10.035156 -10.867188 C 10.035156 -11.144531 9.980469 -11.53125 10.171875 -11.78125 C 11.199219 -11.863281 12.253906 -11.863281 13.25 -11.863281 C 13.5 -12.03125 13.472656 -12.195312 13.472656 -12.417969 C 13.472656 -12.804688 13.445312 -13.222656 13.472656 -13.609375 C 13.472656 -13.859375 13.5 -14.164062 13.445312 -14.414062 C 13.195312 -14.496094 12.917969 -14.523438 12.667969 -14.496094 C 11.835938 -14.441406 10.976562 -14.582031 10.0625 -14.46875 L 10.0625 -18.324219 C 9.121094 -18.488281 8.289062 -18.324219 7.511719 -18.351562 Z M 7.511719 -18.351562 "/></g></g></g><g fill="#ffffff" fill-opacity="1"><g transform="translate(80.834191, 230.158296)"><g><path d="M 7.207031 -14.554688 C 4.988281 -14.414062 0.722656 -14.554688 0.527344 -14.441406 C 2.714844 -8.980469 5.378906 -3.851562 7.871094 1.273438 C 7.375 2.46875 5.988281 3.269531 4.628906 3.019531 C 4.046875 2.910156 3.519531 2.6875 3.019531 2.355469 C 2.855469 2.246094 2.6875 2.132812 2.410156 2.21875 C 1.886719 3.019531 1.164062 3.714844 0.914062 4.710938 C 1.664062 5.683594 3.105469 6.179688 4.269531 6.292969 C 5.292969 6.402344 5.765625 6.375 6.765625 6.238281 C 7.871094 6.070312 8.757812 5.570312 9.425781 4.683594 C 10.171875 3.714844 10.753906 2.660156 11.226562 1.523438 C 12.113281 -0.636719 13.082031 -2.773438 13.914062 -4.988281 C 15.050781 -7.984375 16.160156 -11.003906 17.492188 -13.941406 C 17.546875 -14.082031 17.683594 -14.191406 17.601562 -14.414062 C 17.546875 -14.441406 17.492188 -14.523438 17.40625 -14.496094 C 16.300781 -14.359375 15.300781 -14.554688 14.136719 -14.414062 C 13.390625 -11.394531 12.140625 -8.511719 11.117188 -5.488281 C 10.285156 -7.011719 9.8125 -8.566406 9.121094 -10.007812 C 8.425781 -11.476562 7.761719 -12.972656 7.207031 -14.554688 Z M 7.207031 -14.554688 "/></g></g></g><g fill="#ffffff" fill-opacity="1"><g transform="translate(98.932025, 230.158296)"><g><path d="M 14.941406 -14.832031 C 13.113281 -15.050781 11.308594 -14.859375 9.648438 -14 L 7.652344 -12.972656 C 7.289062 -13.390625 7.070312 -14.027344 6.820312 -14.496094 C 6.015625 -14.554688 5.238281 -14.523438 4.433594 -14.582031 C 3.878906 -14.582031 3.355469 -14.554688 2.800781 -14.636719 C 2.4375 -14.664062 2.050781 -14.582031 1.664062 -14.304688 C 1.886719 -7.566406 1.71875 -0.777344 1.828125 6.125 C 3.964844 6.125 6.152344 6.238281 8.207031 6.042969 C 8.398438 5.847656 8.453125 5.628906 8.453125 5.351562 C 8.425781 4.824219 8.425781 4.296875 8.398438 3.769531 C 8.398438 3.269531 8.371094 2.773438 8.371094 2.273438 C 8.371094 1.441406 8.316406 -0.472656 8.398438 -0.859375 C 8.953125 -0.582031 9.535156 -0.195312 10.117188 0 C 11.394531 0.386719 12.695312 0.527344 14 0.445312 C 15.328125 0.359375 16.660156 0.0546875 17.769531 -0.859375 C 18.15625 -1.191406 18.601562 -1.46875 18.90625 -1.886719 C 19.679688 -3.050781 19.984375 -4.324219 20.234375 -5.683594 C 20.484375 -7.125 20.320312 -8.539062 19.984375 -9.953125 C 19.625 -11.449219 19.070312 -12.804688 17.714844 -13.722656 C 16.855469 -14.304688 15.910156 -14.71875 14.941406 -14.832031 Z M 10.449219 -11.863281 C 11.476562 -12.003906 12.472656 -11.503906 12.972656 -10.367188 C 13.582031 -8.953125 13.664062 -7.484375 13.417969 -5.988281 C 13.332031 -5.320312 13.277344 -4.65625 12.835938 -4.074219 C 12.445312 -3.546875 11.976562 -3.160156 11.421875 -2.855469 C 11.171875 -2.6875 10.894531 -2.714844 10.617188 -2.746094 C 10.007812 -2.855469 9.425781 -2.964844 8.953125 -3.410156 C 8.816406 -3.519531 8.648438 -3.574219 8.480469 -3.6875 C 8.398438 -5.988281 8.289062 -8.316406 8.34375 -10.617188 C 8.871094 -11.421875 9.648438 -11.726562 10.449219 -11.863281 Z M 10.449219 -11.863281 "/></g></g></g><g fill="#ffffff" fill-opacity="1"><g transform="translate(120.521932, 230.158296)"><g><path d="M 3.769531 -20.234375 C 2.910156 -19.957031 2.191406 -19.597656 1.855469 -18.683594 C 1.746094 -18.351562 1.664062 -18.019531 1.746094 -17.714844 C 1.96875 -16.214844 3.019531 -15.632812 4.269531 -15.550781 C 4.710938 -15.550781 5.128906 -15.496094 5.542969 -15.523438 C 6.679688 -15.605469 7.652344 -15.996094 8.234375 -17.132812 C 8.480469 -17.628906 8.511719 -18.683594 8.039062 -19.210938 C 7.652344 -19.625 7.207031 -19.984375 6.625 -20.207031 C 5.65625 -20.597656 4.710938 -20.539062 3.769531 -20.234375 Z M 8.175781 -14.609375 C 6.070312 -14.554688 3.796875 -14.664062 1.886719 -14.523438 C 1.691406 -14.332031 1.664062 -14.164062 1.664062 -14 C 1.691406 -13.582031 1.691406 -12.972656 1.71875 -12.585938 C 1.828125 -11.449219 1.773438 -10.476562 1.773438 -9.371094 C 1.773438 -8.261719 1.664062 -7.152344 1.664062 -6.015625 C 1.691406 -4.519531 1.800781 -3.050781 1.773438 -1.550781 C 1.773438 -1.054688 1.71875 -0.582031 1.800781 -0.0273438 C 3.9375 0.0273438 6.070312 0.0273438 8.175781 -0.0546875 C 8.425781 -0.304688 8.398438 -0.527344 8.371094 -0.75 C 8.316406 -1.136719 8.289062 -1.496094 8.316406 -1.886719 C 8.316406 -3.242188 8.371094 -4.546875 8.371094 -5.875 C 8.34375 -7.234375 8.34375 -8.59375 8.34375 -9.953125 C 8.34375 -11.144531 8.398438 -12.53125 8.398438 -13.722656 C 8.425781 -14 8.398438 -14.304688 8.175781 -14.609375 Z M 8.175781 -14.609375 "/></g></g></g><g fill="#ffffff" fill-opacity="1"><g transform="translate(130.527008, 230.158296)"><g><path d="M 8.121094 -19.652344 C 7.070312 -19.738281 6.015625 -19.652344 4.960938 -19.597656 C 3.878906 -19.515625 2.800781 -19.625 1.664062 -19.515625 C 1.664062 -19.070312 1.636719 -18.710938 1.691406 -18.351562 C 1.773438 -17.601562 1.800781 -16.855469 1.800781 -16.105469 C 1.800781 -15.164062 1.746094 -14.25 1.746094 -13.332031 C 1.773438 -11.558594 1.828125 -9.8125 1.855469 -8.039062 C 1.855469 -7.652344 1.800781 -7.234375 1.828125 -6.847656 C 1.941406 -5.488281 1.828125 -4.128906 1.855469 -2.746094 C 1.855469 -2.023438 1.800781 -1.304688 1.800781 -0.554688 C 1.800781 -0.0820312 1.96875 0.0820312 2.382812 0.0546875 C 4.101562 -0.0273438 5.792969 -0.0546875 7.484375 0.0546875 C 7.761719 0.0820312 8.039062 0.136719 8.371094 -0.0546875 C 8.453125 -1.664062 8.261719 -3.328125 8.453125 -4.988281 C 8.648438 -5.238281 8.871094 -5.433594 9.175781 -5.597656 C 10.285156 -4.101562 11.003906 -2.746094 12.390625 -0.0273438 C 13.359375 0.0273438 14.277344 -0.0820312 15.191406 -0.0546875 C 16.214844 -0.0273438 17.214844 -0.136719 18.210938 0 C 18.878906 0.0546875 19.570312 0.0273438 20.261719 -0.167969 C 20.292969 -0.5 20.152344 -0.722656 20.015625 -0.941406 C 19.347656 -1.914062 18.65625 -2.964844 17.933594 -3.9375 C 16.714844 -5.570312 15.691406 -7.316406 14.609375 -9.0625 C 14.496094 -9.257812 14.359375 -9.425781 14.332031 -9.703125 C 15.023438 -10.5625 15.828125 -11.28125 16.855469 -11.726562 C 17.519531 -12.03125 18.265625 -12.085938 19.070312 -11.835938 C 19.238281 -12.667969 19.097656 -13.5 19.210938 -14.277344 C 19.070312 -14.46875 18.878906 -14.664062 18.628906 -14.746094 C 17.742188 -14.96875 17.046875 -14.941406 16.1875 -14.582031 C 15.300781 -14.164062 14.523438 -13.582031 13.777344 -13 C 12.140625 -11.78125 10.617188 -10.421875 8.925781 -9.285156 C 8.757812 -9.203125 8.648438 -9.035156 8.425781 -9.035156 C 8.289062 -9.3125 8.289062 -9.589844 8.289062 -9.839844 C 8.398438 -11.003906 8.289062 -12.167969 8.289062 -13.304688 C 8.289062 -14.691406 8.316406 -16.078125 8.289062 -17.464844 C 8.289062 -18.183594 8.371094 -18.90625 8.121094 -19.652344 Z M 8.121094 -19.652344 "/></g></g></g><g fill="#ffffff" fill-opacity="1"><g transform="translate(151.091467, 230.158296)"><g><path d="M 8.398438 -19.652344 C 6.179688 -19.515625 3.992188 -19.679688 1.773438 -19.570312 C 1.550781 -13 1.691406 -6.488281 1.914062 0 C 2.050781 0.0273438 2.132812 0.0820312 2.21875 0.0820312 C 3.464844 -0.0273438 4.683594 -0.0273438 5.960938 0 C 6.765625 0.0546875 7.59375 0.0273438 8.371094 -0.222656 C 8.480469 -0.386719 8.511719 -0.554688 8.480469 -0.722656 C 8.371094 -1.523438 8.425781 -2.328125 8.425781 -3.132812 C 8.398438 -5.570312 8.539062 -8.011719 8.539062 -10.449219 C 8.539062 -10.753906 8.648438 -10.976562 8.871094 -11.171875 C 9.480469 -11.671875 10.089844 -12.003906 10.921875 -12.058594 C 12.085938 -12.140625 12.835938 -11.363281 12.972656 -10.339844 C 13.140625 -9.285156 13.113281 -8.175781 13.167969 -7.125 C 13.222656 -6.320312 13.113281 -5.542969 13.140625 -4.769531 C 13.140625 -3.992188 13.140625 -3.214844 13.167969 -2.410156 C 13.195312 -1.773438 13.167969 -1.109375 13.167969 -0.445312 C 13.167969 -0.277344 13.222656 -0.109375 13.359375 0 C 14.136719 0.0820312 18.792969 0.0273438 19.679688 -0.109375 C 19.847656 -0.359375 19.902344 -0.609375 19.902344 -0.859375 L 19.902344 -3.296875 C 19.847656 -4.378906 19.902344 -5.515625 19.929688 -6.597656 C 19.984375 -7.707031 19.902344 -8.789062 19.902344 -9.867188 C 19.902344 -11.335938 19.347656 -12.613281 18.40625 -13.722656 C 18.019531 -14.164062 17.574219 -14.582031 16.992188 -14.859375 C 14.832031 -15.800781 12.722656 -15.414062 10.671875 -14.496094 C 9.953125 -14.191406 9.285156 -13.804688 8.511719 -13.417969 C 8.539062 -14.136719 8.511719 -14.800781 8.453125 -15.496094 C 8.371094 -16.1875 8.453125 -16.882812 8.398438 -17.574219 C 8.371094 -18.238281 8.511719 -18.90625 8.398438 -19.652344 Z M 8.398438 -19.652344 "/></g></g></g><g fill="#ffffff" fill-opacity="1"><g transform="translate(172.764527, 230.158296)"><g><path d="M 8.703125 -14.832031 C 7.871094 -14.71875 7.039062 -14.441406 6.238281 -14.164062 C 3.878906 -13.332031 2.300781 -11.78125 1.578125 -9.339844 C 1.246094 -8.175781 1.191406 -7.039062 1.304688 -5.847656 C 1.414062 -4.738281 1.800781 -3.714844 2.4375 -2.828125 C 3.410156 -1.496094 4.628906 -0.472656 6.320312 -0.0820312 C 6.347656 -0.0820312 6.375 -0.0546875 6.429688 -0.0546875 C 7.347656 0.332031 8.316406 0.386719 9.285156 0.472656 C 10.144531 0.554688 11.003906 0.472656 11.835938 0.472656 C 13.941406 0.359375 15.882812 -0.109375 17.492188 -1.578125 C 17.851562 -1.886719 18.101562 -2.273438 18.40625 -2.660156 C 18.878906 -3.269531 19.210938 -3.964844 19.402344 -4.738281 C 19.652344 -5.820312 19.765625 -6.929688 19.542969 -8.039062 C 19.320312 -9.121094 19.042969 -10.144531 18.460938 -11.089844 C 17.628906 -12.390625 16.578125 -13.359375 15.191406 -13.972656 C 14.386719 -14.332031 13.554688 -14.609375 12.695312 -14.773438 C 11.363281 -15.023438 10.035156 -15.023438 8.703125 -14.832031 Z M 10.699219 -11.890625 C 11.253906 -11.835938 11.671875 -11.558594 12.03125 -11.171875 C 12.722656 -10.421875 12.835938 -9.371094 12.890625 -8.398438 L 12.890625 -7.234375 C 12.890625 -6.238281 12.835938 -5.238281 12.53125 -4.296875 C 12.363281 -3.824219 12.140625 -3.382812 11.78125 -3.050781 C 10.921875 -2.164062 9.757812 -2.382812 9.035156 -3.296875 C 8.816406 -3.546875 8.59375 -3.878906 8.480469 -4.1875 C 8.121094 -5.128906 8.066406 -6.125 8.011719 -7.097656 C 7.929688 -8.316406 8.316406 -9.453125 8.730469 -10.589844 C 9.035156 -11.449219 9.839844 -11.976562 10.699219 -11.890625 Z M 10.699219 -11.890625 "/></g></g></g><g fill="#ffffff" fill-opacity="1"><g transform="translate(193.661563, 230.158296)"><g><path d="M 17.878906 -14.582031 C 17.519531 -14.523438 17.160156 -14.523438 16.824219 -14.496094 C 15.441406 -14.496094 14.082031 -14.46875 12.722656 -14.441406 C 12.253906 -14.441406 12.167969 -14.332031 12.167969 -13.914062 C 12.140625 -13.445312 12.167969 -13 12.195312 -12.53125 C 12.253906 -11.394531 12.335938 -10.257812 12.253906 -9.121094 C 12.167969 -7.898438 12.167969 -6.429688 12.195312 -5.210938 C 12.253906 -4.128906 12.085938 -3.714844 11.199219 -3.1875 C 10.339844 -2.6875 9.339844 -3.269531 8.925781 -3.910156 C 8.453125 -4.628906 8.261719 -5.40625 8.261719 -6.265625 C 8.289062 -8.425781 8.261719 -10.5625 8.261719 -12.722656 C 8.261719 -13.25 8.261719 -13.804688 8.207031 -14.304688 C 7.816406 -14.46875 2.355469 -14.523438 1.855469 -14.386719 C 1.691406 -13.972656 1.71875 -13.527344 1.71875 -13.113281 C 1.773438 -11.117188 1.609375 -9.148438 1.664062 -7.152344 C 1.691406 -6.210938 1.691406 -5.238281 1.746094 -4.296875 C 1.800781 -3.4375 1.996094 -2.605469 2.660156 -1.886719 C 3.660156 -0.777344 4.824219 -0.0546875 6.320312 0.136719 C 7.011719 0.222656 7.707031 0.25 8.398438 0.304688 C 9.839844 0.445312 10.894531 0 12.085938 -0.75 C 12.640625 -1.082031 12.804688 -1.273438 13.25 -1.71875 C 14.027344 -1.304688 14.136719 -0.5 14.773438 0.136719 C 16.078125 -0.0273438 17.628906 0.0273438 19.015625 -0.0820312 C 18.878906 -4.824219 18.710938 -9.730469 18.792969 -14.332031 C 18.488281 -14.664062 18.15625 -14.636719 17.878906 -14.582031 Z M 17.878906 -14.582031 "/></g></g></g><g fill="#ffffff" fill-opacity="1"><g transform="translate(214.392316, 230.158296)"><g><path d="M 9.921875 -14.746094 C 8.371094 -15.078125 6.847656 -14.941406 5.320312 -14.554688 C 4.351562 -14.304688 3.546875 -13.75 2.855469 -13 C 2.078125 -12.167969 1.636719 -11.199219 1.609375 -10.035156 C 1.578125 -8.84375 1.941406 -7.789062 2.992188 -7.070312 C 3.464844 -6.734375 3.9375 -6.402344 4.464844 -6.097656 C 5.40625 -5.597656 6.320312 -5.046875 7.347656 -4.683594 C 7.871094 -4.433594 8.371094 -4.128906 8.789062 -3.714844 C 9.007812 -3.492188 9.203125 -3.242188 9.035156 -2.910156 C 8.898438 -2.605469 8.621094 -2.496094 8.316406 -2.46875 C 7.484375 -2.382812 6.707031 -2.496094 5.90625 -2.714844 C 4.851562 -2.992188 3.910156 -3.382812 3.019531 -4.019531 C 2.882812 -4.101562 2.773438 -4.269531 2.523438 -4.242188 C 1.941406 -3.605469 1.578125 -2.828125 1.246094 -1.996094 C 1.414062 -1.773438 1.523438 -1.609375 1.71875 -1.496094 C 2.273438 -1.191406 2.828125 -0.859375 3.410156 -0.609375 C 4.546875 -0.195312 5.683594 0.0820312 6.929688 0.25 C 8.675781 0.472656 10.394531 0.414062 12.058594 -0.25 C 13.804688 -0.914062 14.832031 -2.164062 14.941406 -4.074219 C 15.050781 -5.875 14.109375 -7.039062 12.667969 -7.898438 C 11.53125 -8.59375 10.421875 -9.257812 9.285156 -9.867188 C 8.871094 -10.089844 8.480469 -10.339844 8.039062 -10.699219 C 7.289062 -11.308594 7.679688 -11.949219 8.148438 -12.167969 C 8.925781 -12.53125 10.699219 -12.140625 11.28125 -11.253906 C 11.503906 -10.949219 11.640625 -10.589844 11.863281 -10.3125 C 12.804688 -10.285156 13.75 -10.117188 14.691406 -10.339844 C 14.773438 -11.117188 14.441406 -11.699219 14.109375 -12.28125 C 13.695312 -13.082031 13.113281 -13.695312 12.253906 -14.082031 C 11.476562 -14.359375 10.699219 -14.554688 9.921875 -14.746094 Z M 9.921875 -14.746094 "/></g></g></g><g fill="#ffffff" fill-opacity="1"><g transform="translate(230.439243, 230.158296)"><g><path d="M 10.476562 -14.941406 C 9.339844 -15.050781 8.261719 -14.941406 7.125 -14.664062 C 6.210938 -14.441406 5.847656 -14.21875 5.15625 -13.886719 C 4.324219 -13.5 3.6875 -12.945312 3.132812 -12.253906 C 2.132812 -11.003906 1.578125 -9.589844 1.332031 -8.066406 C 1.136719 -6.847656 1.273438 -5.628906 1.664062 -4.433594 C 2.078125 -3.242188 2.828125 -2.328125 3.769531 -1.609375 C 4.683594 -0.914062 5.460938 -0.445312 6.570312 -0.109375 C 7.457031 0.167969 8.039062 0.167969 8.925781 0.304688 C 9.839844 0.472656 10.78125 0.414062 11.671875 0.304688 C 13.140625 0.195312 14 -0.0820312 15.300781 -0.777344 C 15.964844 -1.136719 16.660156 -1.746094 17.214844 -2.355469 C 16.714844 -3.382812 16.105469 -4.574219 15.910156 -4.433594 C 15.605469 -4.296875 15.355469 -3.9375 15.105469 -3.742188 C 14.164062 -3.105469 13.664062 -2.714844 12.5 -2.605469 C 11.558594 -2.496094 10.644531 -2.550781 9.8125 -2.992188 C 8.757812 -3.519531 8.121094 -4.796875 8.289062 -5.933594 C 8.539062 -5.960938 8.816406 -6.042969 9.0625 -6.042969 C 10.421875 -5.960938 11.753906 -6.070312 13.113281 -5.988281 C 14.609375 -5.90625 15.355469 -6.042969 16.855469 -6.042969 C 17.046875 -6.042969 17.378906 -5.960938 17.40625 -6.152344 C 17.4375 -6.238281 17.464844 -6.402344 17.464844 -6.488281 C 17.546875 -8.261719 17.4375 -9.648438 16.632812 -11.144531 C 16.410156 -11.53125 16.242188 -11.976562 15.910156 -12.308594 C 14.277344 -13.914062 12.777344 -14.71875 10.476562 -14.941406 Z M 10.839844 -11.585938 C 10.949219 -11.476562 11.03125 -11.363281 11.089844 -11.226562 C 11.335938 -10.367188 11.503906 -9.507812 11.253906 -8.539062 C 10.199219 -8.59375 9.230469 -8.425781 8.175781 -8.539062 C 8.234375 -9.507812 8.34375 -10.449219 8.898438 -11.28125 C 9.339844 -11.976562 10.285156 -12.113281 10.839844 -11.585938 Z M 10.839844 -11.585938 "/></g></g></g><g clip-path="url(#b193ff5d3b)"><g clip-path="url(#a6120a768b)"><g clip-path="url(#267cd2eb47)"><path fill="#ffffff" d="M 130.625 19.550781 C 121.234375 41.285156 111.828125 63.019531 102.425781 84.75 C 89.316406 115.0625 76.203125 145.367188 63.089844 175.679688 C 59.085938 184.953125 55.070312 194.214844 51.066406 203.488281 C 50.375 205.085938 51.410156 206.273438 53.046875 206.199219 C 54.886719 206.117188 56.859375 204.542969 57.570312 202.890625 C 66.964844 181.15625 76.375 159.425781 85.769531 137.691406 C 98.882812 107.378906 111.996094 77.074219 125.109375 46.761719 C 129.117188 37.492188 133.125 28.226562 137.132812 18.957031 C 137.820312 17.355469 136.789062 16.167969 135.148438 16.246094 C 133.316406 16.324219 131.34375 17.90625 130.625 19.550781 Z M 130.625 19.550781 " fill-opacity="1" fill-rule="nonzero"/></g></g></g><g clip-path="url(#d89b7db742)"><g clip-path="url(#df938841f6)"><g clip-path="url(#fa1d7a90c4)"><path fill="#ffffff" d="M 100.957031 17.644531 C 108.792969 40.078125 116.617188 62.519531 124.441406 84.957031 C 135.363281 116.253906 146.273438 147.550781 157.191406 178.847656 C 160.535156 188.417969 163.867188 197.984375 167.210938 207.554688 C 167.789062 209.207031 169.359375 209.378906 170.519531 208.210938 C 171.824219 206.902344 172.207031 204.398438 171.609375 202.691406 C 163.777344 180.257812 155.953125 157.8125 148.125 135.378906 C 137.207031 104.082031 126.292969 72.785156 115.375 41.488281 C 112.035156 31.917969 108.699219 22.351562 105.355469 12.78125 C 104.777344 11.128906 103.207031 10.957031 102.046875 12.125 C 100.75 13.433594 100.367188 15.941406 100.957031 17.644531 Z M 100.957031 17.644531 " fill-opacity="1" fill-rule="nonzero"/></g></g></g><path fill="#ffffff" d="M 138.113281 137.003906 L 138.105469 137.007812 L 138.0625 137.066406 L 138.089844 137.039062 L 138.097656 137.035156 L 138.105469 137.019531 L 138.109375 137.015625 L 138.113281 137.007812 L 138.113281 137.003906 M 90.09375 136.667969 L 92.785156 140.007812 C 93.828125 141.328125 95.054688 142.542969 96.46875 143.652344 C 98.3125 144.992188 99.476562 145.761719 99.957031 145.96875 C 100.800781 146.441406 101.6875 146.890625 102.625 147.3125 C 107.097656 149.167969 110.941406 149.992188 114.160156 149.789062 L 117.765625 149.335938 L 120.773438 148.667969 L 123.644531 147.757812 L 126.382812 146.59375 L 128.984375 145.183594 L 131.453125 143.527344 L 133.789062 141.621094 C 135.304688 140.269531 136.726562 138.75 138.0625 137.066406 C 137.203125 137.527344 135.050781 138.34375 131.601562 139.507812 C 129.941406 140.023438 128.507812 140.398438 127.300781 140.625 L 126.09375 140.851562 C 125.261719 140.996094 124.378906 141.128906 123.441406 141.242188 C 122.503906 141.359375 121.515625 141.460938 120.476562 141.550781 C 118.394531 141.722656 116.101562 141.84375 113.601562 141.902344 C 111.925781 141.890625 110.542969 141.792969 109.453125 141.609375 L 96.96875 138.960938 C 93.777344 138.167969 91.484375 137.402344 90.09375 136.667969 " fill-opacity="1" fill-rule="nonzero"/><path fill="#ffffff" d="M 137.753906 136.433594 L 137.730469 136.433594 C 137.667969 136.4375 137.609375 136.449219 137.550781 136.472656 L 137.339844 136.609375 C 137.203125 136.710938 137.0625 136.832031 136.921875 136.96875 C 136.636719 137.246094 136.351562 137.597656 136.0625 138.023438 C 135.917969 138.234375 135.773438 138.464844 135.628906 138.714844 L 135.207031 140.09375 C 135.535156 139.914062 136.09375 139.617188 136.886719 139.214844 C 137.039062 139.128906 137.1875 139.035156 137.332031 138.933594 C 137.816406 138.59375 138.246094 138.199219 138.625 137.75 C 138.730469 137.597656 138.804688 137.4375 138.847656 137.265625 C 138.855469 137.226562 138.859375 137.1875 138.855469 137.152344 C 138.832031 137.054688 138.808594 137 138.785156 136.980469 C 138.722656 136.878906 138.566406 136.765625 138.328125 136.652344 C 138.152344 136.5625 138.023438 136.5 137.949219 136.46875 C 137.894531 136.449219 137.832031 136.4375 137.753906 136.433594 " fill-opacity="1" fill-rule="nonzero"/><path fill="#ffffff" d="M 90.25 136.0625 L 90.230469 136.0625 C 90.171875 136.0625 90.097656 136.085938 90 136.132812 C 89.902344 136.203125 89.839844 136.269531 89.816406 136.332031 C 89.71875 136.570312 89.710938 136.753906 89.785156 136.886719 C 89.785156 136.917969 89.867188 137.011719 90.027344 137.171875 L 90.171875 137.3125 C 90.535156 137.640625 90.996094 138.074219 91.5625 138.613281 C 91.683594 138.734375 91.808594 138.871094 91.929688 139.023438 L 93.304688 138.699219 C 92.480469 137.792969 91.832031 137.132812 91.355469 136.714844 C 91.007812 136.421875 90.792969 136.253906 90.707031 136.21875 C 90.632812 136.179688 90.566406 136.144531 90.503906 136.121094 C 90.441406 136.09375 90.382812 136.078125 90.328125 136.070312 L 90.25 136.0625 " fill-opacity="1" fill-rule="nonzero"/><g clip-path="url(#a7a0d9a4ce)"><path fill="#ffffff" d="M 142.460938 128.472656 C 142.351562 128.472656 142.246094 128.53125 142.191406 128.632812 C 141.09375 130.570312 139.730469 132.792969 138.109375 135.300781 C 137.515625 136.214844 136.992188 136.953125 136.539062 137.519531 C 136.429688 137.65625 136.449219 137.851562 136.585938 137.957031 C 136.640625 138.003906 136.710938 138.027344 136.78125 138.027344 C 136.871094 138.027344 136.960938 137.988281 137.023438 137.910156 C 137.492188 137.328125 138.027344 136.570312 138.632812 135.640625 C 140.207031 133.207031 141.535156 131.039062 142.621094 129.136719 C 142.589844 128.921875 142.554688 128.703125 142.519531 128.480469 C 142.5 128.476562 142.480469 128.472656 142.460938 128.472656 Z M 142.460938 128.472656 " fill-opacity="1" fill-rule="nonzero"/></g><g clip-path="url(#b8ac8ceeb7)"><path fill="#ffffff" d="M 143.0625 131.882812 C 141.03125 133.691406 138.96875 135.609375 136.871094 137.648438 C 136.746094 137.765625 136.742188 137.964844 136.863281 138.085938 C 136.925781 138.148438 137.007812 138.179688 137.085938 138.179688 C 137.164062 138.179688 137.242188 138.152344 137.304688 138.09375 C 139.292969 136.160156 141.253906 134.332031 143.1875 132.609375 C 143.148438 132.375 143.105469 132.132812 143.066406 131.882812 Z M 143.0625 131.882812 " fill-opacity="1" fill-rule="nonzero"/></g><g clip-path="url(#942e940ee4)"><path fill="#ffffff" d="M 83.1875 134.441406 C 83.1875 134.667969 83.183594 134.882812 83.179688 135.089844 C 83.363281 135.148438 83.5625 135.207031 83.773438 135.273438 L 83.777344 135.273438 L 89.722656 136.964844 L 89.726562 136.96875 C 89.878906 137.007812 90.042969 137.085938 90.21875 137.199219 C 90.273438 137.234375 90.332031 137.25 90.390625 137.25 C 90.492188 137.25 90.589844 137.203125 90.652344 137.109375 C 90.746094 136.964844 90.703125 136.773438 90.558594 136.679688 C 90.328125 136.53125 90.109375 136.425781 89.894531 136.367188 L 83.949219 134.675781 C 83.671875 134.589844 83.417969 134.511719 83.1875 134.441406 Z M 83.1875 134.441406 " fill-opacity="1" fill-rule="nonzero"/></g><g clip-path="url(#5556ad5fa1)"><path fill="#ffffff" d="M 84.042969 129.089844 C 83.96875 129.089844 83.894531 129.117188 83.835938 129.171875 C 83.707031 129.289062 83.699219 129.484375 83.816406 129.613281 C 84.660156 130.535156 85.832031 131.898438 87.335938 133.695312 C 87.339844 133.703125 87.347656 133.707031 87.351562 133.714844 C 88.703125 135.085938 89.738281 136.175781 90.457031 136.984375 C 90.519531 137.050781 90.605469 137.085938 90.691406 137.085938 C 90.761719 137.085938 90.835938 137.0625 90.894531 137.007812 C 91.023438 136.894531 91.035156 136.699219 90.921875 136.570312 C 90.199219 135.757812 89.160156 134.664062 87.808594 133.289062 C 86.300781 131.488281 85.125 130.121094 84.273438 129.191406 C 84.214844 129.125 84.128906 129.089844 84.042969 129.089844 Z M 84.042969 129.089844 " fill-opacity="1" fill-rule="nonzero"/></g><path fill="#ffffff" d="M 89.953125 135.625 C 89.851562 135.625 89.753906 135.675781 89.691406 135.761719 C 89.507812 136.039062 89.355469 136.261719 89.238281 136.421875 C 89.136719 136.5625 89.167969 136.757812 89.308594 136.855469 C 89.363281 136.898438 89.425781 136.917969 89.488281 136.917969 C 89.585938 136.917969 89.679688 136.871094 89.742188 136.789062 C 89.863281 136.621094 90.019531 136.394531 90.210938 136.109375 C 90.304688 135.96875 90.269531 135.773438 90.125 135.679688 C 90.070312 135.644531 90.011719 135.625 89.953125 135.625 Z M 89.953125 135.625 " fill-opacity="1" fill-rule="nonzero"/><path fill="#ffffff" d="M 90.800781 135.917969 C 90.722656 135.917969 90.644531 135.949219 90.585938 136.007812 C 90.320312 136.269531 90.144531 136.445312 90.066406 136.535156 L 90.058594 136.539062 C 89.917969 136.707031 89.820312 136.84375 89.757812 136.953125 C 89.675781 137.105469 89.734375 137.292969 89.882812 137.375 C 89.929688 137.402344 89.980469 137.414062 90.03125 137.414062 C 90.144531 137.414062 90.25 137.355469 90.304688 137.253906 C 90.34375 137.179688 90.421875 137.078125 90.53125 136.949219 C 90.601562 136.867188 90.765625 136.703125 91.019531 136.453125 C 91.144531 136.332031 91.144531 136.132812 91.023438 136.011719 C 90.964844 135.949219 90.882812 135.917969 90.800781 135.917969 Z M 90.800781 135.917969 " fill-opacity="1" fill-rule="nonzero"/><path fill="#ffffff" d="M 91.015625 136.738281 C 90.945312 136.738281 90.878906 136.761719 90.820312 136.808594 C 90.710938 136.898438 90.570312 137.003906 90.402344 137.117188 C 90.257812 137.214844 90.222656 137.410156 90.320312 137.550781 C 90.378906 137.640625 90.476562 137.6875 90.578125 137.6875 C 90.636719 137.6875 90.699219 137.667969 90.753906 137.632812 C 90.9375 137.507812 91.089844 137.394531 91.214844 137.292969 C 91.347656 137.183594 91.367188 136.984375 91.257812 136.851562 C 91.195312 136.777344 91.105469 136.738281 91.015625 136.738281 Z M 91.015625 136.738281 " fill-opacity="1" fill-rule="nonzero"/><path fill="#ffffff" d="M 137.371094 135.632812 C 137.296875 135.632812 137.21875 135.660156 137.160156 135.714844 C 137.035156 135.832031 137.023438 136.027344 137.140625 136.152344 L 137.140625 136.15625 C 137.511719 136.5625 137.847656 136.917969 138.152344 137.222656 C 138.214844 137.285156 138.292969 137.316406 138.371094 137.316406 C 138.453125 137.316406 138.53125 137.285156 138.59375 137.222656 C 138.714844 137.101562 138.714844 136.90625 138.59375 136.785156 C 138.296875 136.488281 137.964844 136.136719 137.601562 135.738281 C 137.539062 135.667969 137.453125 135.632812 137.371094 135.632812 Z M 137.371094 135.632812 " fill-opacity="1" fill-rule="nonzero"/><path fill="#ffffff" d="M 137.039062 136.230469 C 136.984375 136.230469 136.933594 136.246094 136.882812 136.273438 C 136.734375 136.359375 136.683594 136.546875 136.769531 136.695312 C 136.824219 136.792969 136.878906 136.871094 136.929688 136.929688 L 136.933594 136.9375 C 137.210938 137.234375 137.363281 137.40625 137.394531 137.441406 C 137.453125 137.523438 137.546875 137.5625 137.640625 137.5625 C 137.707031 137.5625 137.769531 137.542969 137.828125 137.5 C 137.964844 137.398438 137.992188 137.203125 137.886719 137.066406 C 137.886719 137.0625 137.882812 137.058594 137.878906 137.054688 C 137.839844 137.007812 137.679688 136.828125 137.394531 136.519531 C 137.371094 136.492188 137.34375 136.449219 137.308594 136.390625 C 137.25 136.289062 137.144531 136.230469 137.039062 136.230469 Z M 137.039062 136.230469 " fill-opacity="1" fill-rule="nonzero"/><path fill="#ffffff" d="M 136.789062 136.796875 C 136.730469 136.796875 136.671875 136.8125 136.621094 136.847656 C 136.476562 136.9375 136.433594 137.132812 136.527344 137.277344 C 136.589844 137.375 136.640625 137.449219 136.6875 137.5 L 136.691406 137.503906 C 136.933594 137.773438 137.082031 137.941406 137.132812 138.007812 C 137.191406 138.085938 137.285156 138.128906 137.378906 138.128906 C 137.445312 138.128906 137.511719 138.105469 137.566406 138.0625 C 137.703125 137.960938 137.730469 137.765625 137.625 137.628906 C 137.566406 137.550781 137.410156 137.371094 137.15625 137.089844 C 137.128906 137.0625 137.097656 137.011719 137.050781 136.941406 C 136.992188 136.847656 136.890625 136.796875 136.789062 136.796875 Z M 136.789062 136.796875 " fill-opacity="1" fill-rule="nonzero"/><path fill="#ffffff" d="M 136.628906 137.253906 C 136.558594 137.253906 136.488281 137.277344 136.429688 137.324219 C 136.296875 137.433594 136.277344 137.628906 136.386719 137.761719 C 136.460938 137.851562 136.578125 137.976562 136.738281 138.132812 C 136.796875 138.195312 136.875 138.226562 136.957031 138.226562 C 137.035156 138.226562 137.117188 138.195312 137.175781 138.132812 C 137.296875 138.011719 137.296875 137.8125 137.175781 137.691406 C 137.03125 137.550781 136.929688 137.441406 136.867188 137.367188 C 136.808594 137.292969 136.71875 137.253906 136.628906 137.253906 Z M 136.628906 137.253906 " fill-opacity="1" fill-rule="nonzero"/><g clip-path="url(#b4574f0a71)"><g clip-path="url(#f2dde888ed)"><g clip-path="url(#0e9ec75eb0)"><path fill="#ffffff" d="M 201.222656 19.550781 C 191.828125 41.285156 182.425781 63.019531 173.023438 84.75 C 159.910156 115.0625 146.796875 145.367188 133.683594 175.679688 C 129.679688 184.953125 125.667969 194.214844 121.660156 203.488281 C 120.96875 205.085938 122.003906 206.273438 123.644531 206.199219 C 125.480469 206.117188 127.453125 204.542969 128.164062 202.890625 C 137.558594 181.15625 146.96875 159.425781 156.363281 137.691406 C 169.476562 107.378906 182.589844 77.074219 195.703125 46.761719 C 199.710938 37.492188 203.722656 28.226562 207.726562 18.957031 C 208.417969 17.355469 207.382812 16.167969 205.742188 16.246094 C 203.910156 16.324219 201.9375 17.90625 201.222656 19.550781 Z M 201.222656 19.550781 " fill-opacity="1" fill-rule="nonzero"/></g></g></g><g clip-path="url(#9e1f53e700)"><g clip-path="url(#d210fcb272)"><g clip-path="url(#e0bb0b10b6)"><path fill="#ffffff" d="M 171.550781 17.644531 C 179.386719 40.078125 187.210938 62.519531 195.039062 84.957031 C 205.957031 116.253906 216.867188 147.550781 227.785156 178.847656 C 231.128906 188.417969 234.460938 197.984375 237.804688 207.554688 C 238.382812 209.207031 239.957031 209.378906 241.113281 208.210938 C 242.417969 206.902344 242.804688 204.398438 242.203125 202.691406 C 234.371094 180.257812 226.546875 157.8125 218.71875 135.378906 C 207.800781 104.082031 196.886719 72.785156 185.96875 41.488281 C 182.628906 31.917969 179.292969 22.351562 175.949219 12.78125 C 175.371094 11.128906 173.800781 10.957031 172.644531 12.125 C 171.34375 13.433594 170.960938 15.941406 171.550781 17.644531 Z M 171.550781 17.644531 " fill-opacity="1" fill-rule="nonzero"/></g></g></g><path fill="#ffffff" d="M 208.707031 137.003906 L 208.699219 137.007812 L 208.65625 137.066406 L 208.683594 137.039062 L 208.691406 137.035156 L 208.695312 137.027344 L 208.703125 137.019531 L 208.703125 137.015625 L 208.707031 137.007812 L 208.707031 137.003906 M 160.6875 136.667969 L 163.378906 140.007812 C 164.421875 141.328125 165.652344 142.542969 167.0625 143.652344 C 168.910156 144.992188 170.070312 145.761719 170.550781 145.96875 C 171.394531 146.441406 172.285156 146.890625 173.21875 147.3125 C 177.691406 149.167969 181.535156 149.992188 184.753906 149.789062 L 188.359375 149.335938 L 191.367188 148.667969 L 194.238281 147.757812 L 196.976562 146.59375 L 199.578125 145.183594 L 202.050781 143.527344 L 204.386719 141.621094 C 205.898438 140.269531 207.320312 138.75 208.65625 137.066406 C 207.796875 137.527344 205.644531 138.34375 202.195312 139.507812 C 200.535156 140.023438 199.101562 140.398438 197.894531 140.625 L 196.6875 140.851562 C 195.855469 140.996094 194.972656 141.128906 194.035156 141.242188 C 193.101562 141.359375 192.109375 141.460938 191.070312 141.550781 C 188.988281 141.722656 186.695312 141.84375 184.195312 141.902344 C 182.519531 141.890625 181.136719 141.792969 180.046875 141.609375 L 167.566406 138.960938 C 164.371094 138.167969 162.078125 137.402344 160.6875 136.667969 " fill-opacity="1" fill-rule="nonzero"/><path fill="#ffffff" d="M 208.347656 136.433594 L 208.324219 136.433594 C 208.261719 136.4375 208.203125 136.449219 208.144531 136.472656 L 207.933594 136.609375 C 207.796875 136.710938 207.65625 136.832031 207.515625 136.96875 C 207.234375 137.246094 206.945312 137.597656 206.660156 138.023438 C 206.515625 138.234375 206.367188 138.464844 206.222656 138.714844 L 205.804688 140.09375 C 206.128906 139.914062 206.6875 139.617188 207.480469 139.214844 C 207.632812 139.128906 207.78125 139.035156 207.929688 138.933594 C 208.410156 138.59375 208.839844 138.199219 209.222656 137.75 C 209.324219 137.597656 209.398438 137.4375 209.441406 137.265625 C 209.449219 137.226562 209.453125 137.1875 209.449219 137.152344 C 209.425781 137.054688 209.402344 137 209.378906 136.980469 C 209.316406 136.878906 209.164062 136.765625 208.921875 136.652344 C 208.746094 136.5625 208.621094 136.5 208.542969 136.46875 C 208.492188 136.449219 208.425781 136.4375 208.347656 136.433594 " fill-opacity="1" fill-rule="nonzero"/><path fill="#ffffff" d="M 160.84375 136.0625 L 160.824219 136.0625 C 160.765625 136.0625 160.691406 136.085938 160.59375 136.132812 C 160.496094 136.203125 160.433594 136.269531 160.410156 136.332031 C 160.316406 136.570312 160.304688 136.753906 160.378906 136.886719 C 160.382812 136.917969 160.460938 137.011719 160.621094 137.171875 L 160.765625 137.3125 C 161.128906 137.640625 161.589844 138.074219 162.15625 138.613281 C 162.277344 138.734375 162.402344 138.871094 162.527344 139.023438 L 163.902344 138.699219 C 163.078125 137.792969 162.425781 137.132812 161.949219 136.714844 C 161.601562 136.421875 161.386719 136.253906 161.300781 136.21875 C 161.230469 136.179688 161.160156 136.144531 161.097656 136.121094 C 161.035156 136.09375 160.976562 136.078125 160.921875 136.070312 L 160.84375 136.0625 " fill-opacity="1" fill-rule="nonzero"/><g clip-path="url(#ecad6b45cb)"><path fill="#ffffff" d="M 213.054688 128.472656 C 212.949219 128.472656 212.84375 128.53125 212.785156 128.632812 C 211.6875 130.570312 210.328125 132.792969 208.703125 135.300781 C 208.113281 136.214844 207.585938 136.953125 207.132812 137.519531 C 207.023438 137.65625 207.046875 137.851562 207.179688 137.957031 C 207.238281 138.003906 207.304688 138.027344 207.375 138.027344 C 207.464844 138.027344 207.554688 137.988281 207.617188 137.910156 C 208.085938 137.328125 208.621094 136.570312 209.226562 135.640625 C 210.800781 133.207031 212.128906 131.039062 213.214844 129.136719 C 213.183594 128.921875 213.148438 128.703125 213.113281 128.480469 C 213.09375 128.476562 213.074219 128.472656 213.054688 128.472656 Z M 213.054688 128.472656 " fill-opacity="1" fill-rule="nonzero"/></g><g clip-path="url(#a8105b1aab)"><path fill="#ffffff" d="M 213.660156 131.882812 C 211.625 133.691406 209.5625 135.609375 207.464844 137.648438 C 207.339844 137.765625 207.339844 137.964844 207.457031 138.085938 C 207.519531 138.148438 207.601562 138.179688 207.683594 138.179688 C 207.761719 138.179688 207.839844 138.152344 207.898438 138.09375 C 209.890625 136.160156 211.851562 134.332031 213.78125 132.609375 C 213.742188 132.375 213.699219 132.132812 213.660156 131.882812 Z M 213.660156 131.882812 " fill-opacity="1" fill-rule="nonzero"/></g><g clip-path="url(#e3de510234)"><path fill="#ffffff" d="M 153.78125 134.441406 C 153.78125 134.667969 153.777344 134.882812 153.773438 135.089844 C 153.960938 135.148438 154.15625 135.207031 154.367188 135.273438 L 154.371094 135.273438 L 160.316406 136.964844 L 160.320312 136.96875 C 160.472656 137.007812 160.636719 137.085938 160.8125 137.199219 C 160.867188 137.234375 160.925781 137.25 160.984375 137.25 C 161.085938 137.25 161.183594 137.203125 161.246094 137.109375 C 161.339844 136.964844 161.296875 136.773438 161.15625 136.679688 C 160.925781 136.53125 160.703125 136.425781 160.488281 136.367188 L 154.542969 134.675781 C 154.265625 134.589844 154.015625 134.511719 153.785156 134.441406 Z M 153.78125 134.441406 " fill-opacity="1" fill-rule="nonzero"/></g><path fill="#ffffff" d="M 154.640625 129.089844 C 154.5625 129.089844 154.488281 129.117188 154.429688 129.171875 C 154.300781 129.289062 154.292969 129.484375 154.410156 129.613281 C 155.253906 130.535156 156.425781 131.898438 157.929688 133.695312 C 157.9375 133.703125 157.941406 133.707031 157.949219 133.714844 C 159.300781 135.085938 160.332031 136.175781 161.050781 136.984375 C 161.113281 137.050781 161.199219 137.085938 161.285156 137.085938 C 161.359375 137.085938 161.429688 137.0625 161.492188 137.007812 C 161.621094 136.894531 161.632812 136.699219 161.515625 136.570312 C 160.792969 135.757812 159.757812 134.664062 158.402344 133.289062 C 156.898438 131.488281 155.71875 130.121094 154.867188 129.191406 C 154.808594 129.125 154.722656 129.089844 154.640625 129.089844 Z M 154.640625 129.089844 " fill-opacity="1" fill-rule="nonzero"/><path fill="#ffffff" d="M 160.546875 135.625 C 160.445312 135.625 160.347656 135.675781 160.289062 135.761719 C 160.101562 136.039062 159.949219 136.261719 159.832031 136.421875 C 159.730469 136.5625 159.761719 136.757812 159.902344 136.855469 C 159.957031 136.898438 160.019531 136.917969 160.082031 136.917969 C 160.179688 136.917969 160.273438 136.871094 160.335938 136.789062 C 160.457031 136.621094 160.613281 136.394531 160.804688 136.109375 C 160.898438 135.96875 160.863281 135.773438 160.71875 135.679688 C 160.667969 135.644531 160.605469 135.625 160.546875 135.625 Z M 160.546875 135.625 " fill-opacity="1" fill-rule="nonzero"/><path fill="#ffffff" d="M 161.398438 135.917969 C 161.320312 135.917969 161.238281 135.949219 161.179688 136.007812 C 160.914062 136.269531 160.738281 136.445312 160.660156 136.535156 L 160.652344 136.539062 C 160.515625 136.707031 160.414062 136.84375 160.355469 136.953125 C 160.273438 137.105469 160.328125 137.292969 160.480469 137.375 C 160.527344 137.402344 160.578125 137.414062 160.628906 137.414062 C 160.738281 137.414062 160.84375 137.355469 160.902344 137.253906 C 160.941406 137.179688 161.015625 137.078125 161.125 136.949219 C 161.195312 136.867188 161.359375 136.703125 161.613281 136.453125 C 161.738281 136.332031 161.738281 136.132812 161.621094 136.011719 C 161.558594 135.949219 161.476562 135.917969 161.398438 135.917969 Z M 161.398438 135.917969 " fill-opacity="1" fill-rule="nonzero"/><path fill="#ffffff" d="M 161.609375 136.738281 C 161.542969 136.738281 161.472656 136.761719 161.414062 136.808594 C 161.304688 136.898438 161.164062 137.003906 160.996094 137.117188 C 160.851562 137.214844 160.816406 137.410156 160.914062 137.550781 C 160.972656 137.640625 161.070312 137.6875 161.171875 137.6875 C 161.230469 137.6875 161.292969 137.667969 161.347656 137.632812 C 161.53125 137.507812 161.683594 137.394531 161.808594 137.292969 C 161.941406 137.183594 161.960938 136.984375 161.851562 136.851562 C 161.789062 136.777344 161.699219 136.738281 161.609375 136.738281 Z M 161.609375 136.738281 " fill-opacity="1" fill-rule="nonzero"/><path fill="#ffffff" d="M 207.964844 135.632812 C 207.890625 135.632812 207.816406 135.660156 207.753906 135.714844 C 207.628906 135.832031 207.617188 136.027344 207.734375 136.152344 L 207.734375 136.15625 C 208.105469 136.5625 208.441406 136.917969 208.746094 137.222656 C 208.808594 137.285156 208.886719 137.316406 208.96875 137.316406 C 209.046875 137.316406 209.125 137.285156 209.1875 137.222656 C 209.308594 137.101562 209.308594 136.90625 209.1875 136.785156 C 208.890625 136.488281 208.558594 136.136719 208.195312 135.738281 C 208.132812 135.667969 208.050781 135.632812 207.964844 135.632812 Z M 207.964844 135.632812 " fill-opacity="1" fill-rule="nonzero"/><path fill="#ffffff" d="M 207.632812 136.230469 C 207.582031 136.230469 207.527344 136.246094 207.480469 136.273438 C 207.328125 136.359375 207.277344 136.546875 207.363281 136.695312 C 207.417969 136.792969 207.472656 136.871094 207.523438 136.929688 L 207.527344 136.9375 C 207.804688 137.234375 207.957031 137.40625 207.988281 137.441406 C 208.046875 137.523438 208.140625 137.5625 208.234375 137.5625 C 208.300781 137.5625 208.367188 137.542969 208.421875 137.5 C 208.558594 137.398438 208.585938 137.203125 208.480469 137.066406 C 208.480469 137.0625 208.476562 137.058594 208.476562 137.054688 C 208.4375 137.007812 208.273438 136.828125 207.992188 136.519531 C 207.96875 136.492188 207.9375 136.449219 207.902344 136.390625 C 207.847656 136.289062 207.742188 136.230469 207.632812 136.230469 Z M 207.632812 136.230469 " fill-opacity="1" fill-rule="nonzero"/><path fill="#ffffff" d="M 207.382812 136.796875 C 207.324219 136.796875 207.269531 136.8125 207.214844 136.847656 C 207.070312 136.9375 207.027344 137.132812 207.121094 137.277344 C 207.183594 137.375 207.238281 137.449219 207.285156 137.5 L 207.285156 137.503906 C 207.527344 137.773438 207.675781 137.941406 207.726562 138.007812 C 207.785156 138.085938 207.878906 138.128906 207.972656 138.128906 C 208.039062 138.128906 208.105469 138.105469 208.164062 138.0625 C 208.296875 137.960938 208.324219 137.765625 208.21875 137.628906 C 208.160156 137.550781 208.003906 137.371094 207.75 137.089844 C 207.726562 137.0625 207.691406 137.011719 207.644531 136.941406 C 207.585938 136.847656 207.484375 136.796875 207.382812 136.796875 Z M 207.382812 136.796875 " fill-opacity="1" fill-rule="nonzero"/><path fill="#ffffff" d="M 207.222656 137.253906 C 207.152344 137.253906 207.082031 137.277344 207.023438 137.324219 C 206.890625 137.433594 206.871094 137.628906 206.980469 137.761719 C 207.054688 137.851562 207.171875 137.976562 207.332031 138.132812 C 207.390625 138.195312 207.472656 138.226562 207.550781 138.226562 C 207.628906 138.226562 207.710938 138.195312 207.769531 138.132812 C 207.890625 138.011719 207.890625 137.8125 207.769531 137.691406 C 207.625 137.550781 207.523438 137.441406 207.464844 137.367188 C 207.402344 137.292969 207.3125 137.253906 207.222656 137.253906 Z M 207.222656 137.253906 " fill-opacity="1" fill-rule="nonzero"/></svg>