<svg xmlns="http://www.w3.org/2000/svg" xmlns:xlink="http://www.w3.org/1999/xlink" width="500" zoomAndPan="magnify" viewBox="0 0 375 374.999991" height="500" preserveAspectRatio="xMidYMid meet" version="1.0"><defs><g/><clipPath id="e90eaffe5b"><path d="M 144.585938 105.03125 L 230.085938 105.03125 L 230.085938 212.28125 L 144.585938 212.28125 Z M 144.585938 105.03125 " clip-rule="nonzero"/></clipPath></defs><g clip-path="url(#e90eaffe5b)"><path fill="#ffffff" d="M 226.683594 205.78125 L 226.683594 176.394531 C 226.683594 175.976562 226.574219 175.585938 226.226562 175.351562 L 203.488281 159.746094 L 203.488281 152.378906 C 203.488281 151.683594 202.449219 151.421875 201.75 151.421875 L 196.964844 151.421875 L 196.964844 142 L 199.222656 142 C 199.921875 142 200.589844 141.070312 200.589844 140.375 L 200.589844 137.847656 C 200.589844 137.445312 200.378906 137.066406 200.058594 136.828125 L 190.441406 129.75 L 190.441406 118.804688 L 195.097656 118.804688 C 195.792969 118.804688 196.238281 118.269531 196.238281 117.574219 L 196.238281 113.609375 C 196.238281 112.910156 196 112.277344 195.300781 112.277344 L 190.441406 112.277344 L 190.441406 106.25 C 190.441406 105.550781 189.8125 105.03125 189.113281 105.03125 L 186.046875 105.03125 C 185.347656 105.03125 184.640625 105.382812 184.640625 106.25 L 184.640625 112.277344 L 180.460938 112.277344 C 179.140625 112.277344 178.816406 113.074219 178.816406 113.769531 L 178.816406 116.992188 C 178.816406 117.6875 179.140625 118.804688 180.339844 118.804688 L 184.640625 118.804688 L 184.640625 129.75 L 175.027344 136.828125 C 174.703125 137.066406 174.492188 137.445312 174.492188 137.847656 L 174.492188 140.375 C 174.492188 141.070312 174.511719 142 175.207031 142 L 178.84375 142 L 178.84375 151.421875 L 172.679688 151.421875 C 171.984375 151.421875 172.320312 151.683594 172.320312 152.378906 L 172.320312 159.746094 L 149.21875 175.351562 C 148.871094 175.585938 148.394531 175.976562 148.394531 176.394531 L 148.394531 205.78125 C 146.222656 206.53125 144.867188 209.425781 144.746094 211.0625 C 144.71875 211.410156 144.75 211.703125 144.992188 211.960938 C 145.226562 212.21875 145.476562 212.316406 145.824219 212.316406 L 176.167969 212.316406 C 176.085938 212.109375 176.035156 211.890625 176.035156 211.65625 L 176.035156 189.0625 C 176.035156 184.570312 179.691406 180.910156 184.1875 180.910156 C 184.242188 180.910156 184.296875 180.914062 184.351562 180.921875 C 185.285156 180.992188 186.015625 181.773438 186.015625 182.722656 L 186.015625 211.65625 C 186.015625 211.890625 185.964844 212.109375 185.882812 212.316406 L 189.070312 212.316406 C 188.988281 212.109375 188.9375 211.890625 188.9375 211.65625 L 188.9375 182.722656 C 188.9375 182.242188 189.128906 181.78125 189.46875 181.441406 C 189.808594 181.101562 190.269531 180.914062 190.75 180.914062 L 190.753906 180.914062 C 195.234375 180.925781 198.878906 184.582031 198.878906 189.0625 L 198.878906 211.65625 C 198.878906 211.890625 198.832031 212.109375 198.75 212.316406 L 228.855469 212.316406 C 229.222656 212.316406 229.566406 212.210938 229.808594 211.933594 C 230.046875 211.664062 230.304688 211.324219 230.253906 210.960938 C 230.042969 209.351562 229.585938 206.523438 226.683594 205.78125 " fill-opacity="1" fill-rule="nonzero"/></g><g fill="#ffffff" fill-opacity="1"><g transform="translate(125.564322, 237.742688)"><g><path d="M 0.328125 4.625 C -0.421875 4.625 -1.078125 4.546875 -1.640625 4.390625 L -1.640625 1.609375 C -1.066406 1.753906 -0.539062 1.828125 -0.0625 1.828125 C 0.664062 1.828125 1.1875 1.597656 1.5 1.140625 C 1.820312 0.691406 1.984375 -0.015625 1.984375 -0.984375 L 1.984375 -15.703125 L 5.3125 -15.703125 L 5.3125 -1.015625 C 5.3125 0.816406 4.890625 2.210938 4.046875 3.171875 C 3.210938 4.140625 1.972656 4.625 0.328125 4.625 Z M 0.328125 4.625 "/></g></g></g><g fill="#ffffff" fill-opacity="1"><g transform="translate(132.846232, 237.742688)"><g><path d="M 4.328125 -6.03125 C 4.328125 -4.84375 4.519531 -3.941406 4.90625 -3.328125 C 5.300781 -2.722656 5.941406 -2.421875 6.828125 -2.421875 C 7.691406 -2.421875 8.316406 -2.722656 8.703125 -3.328125 C 9.085938 -3.929688 9.28125 -4.832031 9.28125 -6.03125 C 9.28125 -7.21875 9.085938 -8.109375 8.703125 -8.703125 C 8.316406 -9.296875 7.679688 -9.59375 6.796875 -9.59375 C 5.921875 -9.59375 5.289062 -9.296875 4.90625 -8.703125 C 4.519531 -8.117188 4.328125 -7.226562 4.328125 -6.03125 Z M 12.640625 -6.03125 C 12.640625 -4.070312 12.125 -2.539062 11.09375 -1.4375 C 10.0625 -0.332031 8.625 0.21875 6.78125 0.21875 C 5.625 0.21875 4.601562 -0.03125 3.71875 -0.53125 C 2.84375 -1.039062 2.164062 -1.769531 1.6875 -2.71875 C 1.21875 -3.664062 0.984375 -4.769531 0.984375 -6.03125 C 0.984375 -7.988281 1.492188 -9.507812 2.515625 -10.59375 C 3.546875 -11.6875 4.988281 -12.234375 6.84375 -12.234375 C 8 -12.234375 9.015625 -11.984375 9.890625 -11.484375 C 10.773438 -10.984375 11.453125 -10.265625 11.921875 -9.328125 C 12.398438 -8.390625 12.640625 -7.289062 12.640625 -6.03125 Z M 12.640625 -6.03125 "/></g></g></g><g fill="#ffffff" fill-opacity="1"><g transform="translate(146.464906, 237.742688)"><g><path d="M 12.8125 0 L 9.53125 0 L 9.53125 -7.015625 C 9.53125 -8.742188 8.882812 -9.609375 7.59375 -9.609375 C 6.675781 -9.609375 6.015625 -9.296875 5.609375 -8.671875 C 5.203125 -8.054688 5 -7.050781 5 -5.65625 L 5 0 L 1.71875 0 L 1.71875 -16.71875 L 5 -16.71875 L 5 -13.3125 C 5 -13.039062 4.972656 -12.414062 4.921875 -11.4375 L 4.84375 -10.46875 L 5.015625 -10.46875 C 5.742188 -11.644531 6.90625 -12.234375 8.5 -12.234375 C 9.90625 -12.234375 10.972656 -11.851562 11.703125 -11.09375 C 12.441406 -10.332031 12.8125 -9.242188 12.8125 -7.828125 Z M 12.8125 0 "/></g></g></g><g fill="#ffffff" fill-opacity="1"><g transform="translate(160.921323, 237.742688)"><g><path d="M 12.8125 0 L 9.53125 0 L 9.53125 -7.015625 C 9.53125 -7.878906 9.375 -8.523438 9.0625 -8.953125 C 8.757812 -9.390625 8.269531 -9.609375 7.59375 -9.609375 C 6.675781 -9.609375 6.015625 -9.300781 5.609375 -8.6875 C 5.203125 -8.082031 5 -7.070312 5 -5.65625 L 5 0 L 1.71875 0 L 1.71875 -12.015625 L 4.21875 -12.015625 L 4.65625 -10.46875 L 4.84375 -10.46875 C 5.207031 -11.050781 5.707031 -11.488281 6.34375 -11.78125 C 6.988281 -12.082031 7.722656 -12.234375 8.546875 -12.234375 C 9.941406 -12.234375 11 -11.851562 11.71875 -11.09375 C 12.445312 -10.34375 12.8125 -9.253906 12.8125 -7.828125 Z M 12.8125 0 "/></g></g></g><g fill="#ffffff" fill-opacity="1"><g transform="translate(175.377739, 237.742688)"><g/></g></g><g fill="#ffffff" fill-opacity="1"><g transform="translate(181.091568, 237.742688)"><g><path d="M 11.59375 0 L 10.671875 -4.203125 L 9.421875 -9.5 L 9.34375 -9.5 L 7.15625 0 L 3.625 0 L 0.21875 -12.015625 L 3.484375 -12.015625 L 4.859375 -6.6875 C 5.085938 -5.738281 5.316406 -4.425781 5.546875 -2.75 L 5.609375 -2.75 C 5.640625 -3.289062 5.765625 -4.15625 5.984375 -5.34375 L 6.15625 -6.25 L 7.640625 -12.015625 L 11.25 -12.015625 L 12.65625 -6.25 C 12.6875 -6.09375 12.726562 -5.859375 12.78125 -5.546875 C 12.84375 -5.242188 12.898438 -4.914062 12.953125 -4.5625 C 13.015625 -4.21875 13.066406 -3.878906 13.109375 -3.546875 C 13.160156 -3.210938 13.191406 -2.945312 13.203125 -2.75 L 13.265625 -2.75 C 13.328125 -3.269531 13.441406 -3.976562 13.609375 -4.875 C 13.773438 -5.769531 13.894531 -6.375 13.96875 -6.6875 L 15.40625 -12.015625 L 18.609375 -12.015625 L 15.15625 0 Z M 11.59375 0 "/></g></g></g><g fill="#ffffff" fill-opacity="1"><g transform="translate(199.919283, 237.742688)"><g><path d="M 6.6875 -9.90625 C 6 -9.90625 5.457031 -9.679688 5.0625 -9.234375 C 4.664062 -8.796875 4.441406 -8.175781 4.390625 -7.375 L 8.984375 -7.375 C 8.960938 -8.175781 8.75 -8.796875 8.34375 -9.234375 C 7.9375 -9.679688 7.382812 -9.90625 6.6875 -9.90625 Z M 7.15625 0.21875 C 5.21875 0.21875 3.703125 -0.3125 2.609375 -1.375 C 1.523438 -2.445312 0.984375 -3.960938 0.984375 -5.921875 C 0.984375 -7.929688 1.484375 -9.484375 2.484375 -10.578125 C 3.492188 -11.679688 4.890625 -12.234375 6.671875 -12.234375 C 8.367188 -12.234375 9.6875 -11.75 10.625 -10.78125 C 11.570312 -9.8125 12.046875 -8.476562 12.046875 -6.78125 L 12.046875 -5.1875 L 4.3125 -5.1875 C 4.34375 -4.257812 4.613281 -3.53125 5.125 -3 C 5.644531 -2.476562 6.375 -2.21875 7.3125 -2.21875 C 8.03125 -2.21875 8.710938 -2.289062 9.359375 -2.4375 C 10.003906 -2.59375 10.675781 -2.835938 11.375 -3.171875 L 11.375 -0.640625 C 10.800781 -0.347656 10.1875 -0.132812 9.53125 0 C 8.882812 0.144531 8.09375 0.21875 7.15625 0.21875 Z M 7.15625 0.21875 "/></g></g></g><g fill="#ffffff" fill-opacity="1"><g transform="translate(212.915021, 237.742688)"><g><path d="M 10.09375 -3.5625 C 10.09375 -2.332031 9.664062 -1.394531 8.8125 -0.75 C 7.957031 -0.101562 6.675781 0.21875 4.96875 0.21875 C 4.09375 0.21875 3.347656 0.15625 2.734375 0.03125 C 2.117188 -0.0820312 1.546875 -0.253906 1.015625 -0.484375 L 1.015625 -3.1875 C 1.617188 -2.90625 2.300781 -2.664062 3.0625 -2.46875 C 3.832031 -2.28125 4.503906 -2.1875 5.078125 -2.1875 C 6.265625 -2.1875 6.859375 -2.53125 6.859375 -3.21875 C 6.859375 -3.46875 6.78125 -3.671875 6.625 -3.828125 C 6.46875 -3.992188 6.195312 -4.175781 5.8125 -4.375 C 5.425781 -4.582031 4.910156 -4.828125 4.265625 -5.109375 C 3.335938 -5.492188 2.65625 -5.847656 2.21875 -6.171875 C 1.789062 -6.503906 1.476562 -6.882812 1.28125 -7.3125 C 1.082031 -7.738281 0.984375 -8.265625 0.984375 -8.890625 C 0.984375 -9.953125 1.394531 -10.773438 2.21875 -11.359375 C 3.050781 -11.941406 4.226562 -12.234375 5.75 -12.234375 C 7.195312 -12.234375 8.601562 -11.921875 9.96875 -11.296875 L 8.984375 -8.921875 C 8.378906 -9.179688 7.816406 -9.394531 7.296875 -9.5625 C 6.773438 -9.726562 6.238281 -9.8125 5.6875 -9.8125 C 4.726562 -9.8125 4.25 -9.550781 4.25 -9.03125 C 4.25 -8.726562 4.398438 -8.46875 4.703125 -8.25 C 5.015625 -8.039062 5.695312 -7.726562 6.75 -7.3125 C 7.695312 -6.925781 8.382812 -6.566406 8.8125 -6.234375 C 9.25 -5.910156 9.570312 -5.53125 9.78125 -5.09375 C 9.988281 -4.664062 10.09375 -4.15625 10.09375 -3.5625 Z M 10.09375 -3.5625 "/></g></g></g><g fill="#ffffff" fill-opacity="1"><g transform="translate(223.848626, 237.742688)"><g><path d="M 5 0 L 1.71875 0 L 1.71875 -16.71875 L 5 -16.71875 Z M 5 0 "/></g></g></g><g fill="#ffffff" fill-opacity="1"><g transform="translate(230.561306, 237.742688)"><g><path d="M 6.6875 -9.90625 C 6 -9.90625 5.457031 -9.679688 5.0625 -9.234375 C 4.664062 -8.796875 4.441406 -8.175781 4.390625 -7.375 L 8.984375 -7.375 C 8.960938 -8.175781 8.75 -8.796875 8.34375 -9.234375 C 7.9375 -9.679688 7.382812 -9.90625 6.6875 -9.90625 Z M 7.15625 0.21875 C 5.21875 0.21875 3.703125 -0.3125 2.609375 -1.375 C 1.523438 -2.445312 0.984375 -3.960938 0.984375 -5.921875 C 0.984375 -7.929688 1.484375 -9.484375 2.484375 -10.578125 C 3.492188 -11.679688 4.890625 -12.234375 6.671875 -12.234375 C 8.367188 -12.234375 9.6875 -11.75 10.625 -10.78125 C 11.570312 -9.8125 12.046875 -8.476562 12.046875 -6.78125 L 12.046875 -5.1875 L 4.3125 -5.1875 C 4.34375 -4.257812 4.613281 -3.53125 5.125 -3 C 5.644531 -2.476562 6.375 -2.21875 7.3125 -2.21875 C 8.03125 -2.21875 8.710938 -2.289062 9.359375 -2.4375 C 10.003906 -2.59375 10.675781 -2.835938 11.375 -3.171875 L 11.375 -0.640625 C 10.800781 -0.347656 10.1875 -0.132812 9.53125 0 C 8.882812 0.144531 8.09375 0.21875 7.15625 0.21875 Z M 7.15625 0.21875 "/></g></g></g><g fill="#ffffff" fill-opacity="1"><g transform="translate(243.557044, 237.742688)"><g><path d="M 0 -12.015625 L 3.59375 -12.015625 L 5.859375 -5.25 C 6.046875 -4.664062 6.175781 -3.972656 6.25 -3.171875 L 6.3125 -3.171875 C 6.394531 -3.910156 6.550781 -4.601562 6.78125 -5.25 L 9 -12.015625 L 12.515625 -12.015625 L 7.4375 1.53125 C 6.96875 2.789062 6.300781 3.726562 5.4375 4.34375 C 4.570312 4.96875 3.566406 5.28125 2.421875 5.28125 C 1.847656 5.28125 1.289062 5.222656 0.75 5.109375 L 0.75 2.5 C 1.144531 2.59375 1.578125 2.640625 2.046875 2.640625 C 2.617188 2.640625 3.125 2.460938 3.5625 2.109375 C 4 1.753906 4.335938 1.21875 4.578125 0.5 L 4.765625 -0.09375 Z M 0 -12.015625 "/></g></g></g></svg>